<svg width="124" height="59" viewBox="0 0 124 59" fill="none" xmlns="http://www.w3.org/2000/svg">
<g id="Group 4">
<g id="Group 4_2">
<g id="Group 2">
<path id="Vector" d="M23.3354 57.5958L-1.52588e-05 28.9717H13.9434C14.0121 29.1768 14.0847 29.3913 14.1557 29.6063C14.2268 29.8213 14.2993 30.0306 14.3616 30.2454C14.3873 30.3345 14.4283 30.3645 14.5225 30.364C15.3887 30.3601 16.2552 30.364 17.1217 30.3588C17.2331 30.3588 17.2735 30.3969 17.3067 30.4977C18.3793 33.7661 19.4539 37.0337 20.5303 40.3003C21.2406 42.459 21.9503 44.6187 22.6596 46.7795C23.8948 50.5378 25.1311 54.2962 26.3682 58.0545C26.4611 58.3367 26.5533 58.6189 26.6449 58.9011C26.657 58.9324 26.6577 58.967 26.6467 58.9987L21.9511 53.2364L21.9308 53.2472L23.3567 57.5854L23.3354 57.5958Z" fill="white"/>
<path id="Vector_2" d="M33.2382 30.0473H33.0756C28.5303 30.0473 23.9849 30.0485 19.4394 30.0509C19.3164 30.0509 19.2711 30.01 19.2371 29.9001C19.1211 29.5261 18.9916 29.1562 18.8768 28.7821C18.8465 28.6839 18.8063 28.6482 18.6998 28.649C17.8338 28.6539 16.9676 28.649 16.1006 28.6539C16.0041 28.6539 15.9621 28.628 15.9305 28.5321C14.7981 25.0796 13.6636 21.6277 12.527 18.1764C11.7105 15.6946 10.8939 13.2127 10.0771 10.7305C8.95124 7.30756 7.82576 3.88441 6.70063 0.461089C6.64826 0.310468 6.60621 0.156414 6.57478 0C8.14255 1.92347 9.7105 3.84676 11.2786 5.76989L11.3018 5.75849L9.88353 1.44337L9.90926 1.42886C17.6779 10.9595 25.4543 20.499 33.2382 30.0473Z" fill="white"/>
</g>
<g id="zarp">
<path d="M62.5409 19.923C62.0091 20.4814 61.3045 21.2658 60.427 22.2762C59.5761 23.2867 58.6587 24.4168 57.6749 25.6665C56.691 26.8897 55.6939 28.1793 54.6834 29.5354C53.6996 30.865 52.8088 32.1413 52.0111 33.3645H62.7802V37.393H46.1877V34.4015C46.7727 33.3379 47.504 32.1812 48.3815 30.9315C49.259 29.6817 50.163 28.4319 51.0937 27.1822C52.0244 25.9058 52.9417 24.696 53.8458 23.5526C54.7765 22.4092 55.6008 21.412 56.3187 20.5611H46.7063V16.5327H62.5409V19.923Z" fill="white"/>
<path d="M74.6014 34.0027C76.0905 34.0027 77.2206 33.9229 77.9917 33.7633V28.4186C77.7258 28.3389 77.3402 28.2591 76.835 28.1793C76.3298 28.0996 75.7714 28.0597 75.1598 28.0597C74.628 28.0597 74.0829 28.0996 73.5245 28.1793C72.9927 28.2591 72.5007 28.4054 72.0487 28.6181C71.6233 28.8308 71.2776 29.1366 71.0117 29.5354C70.7458 29.9077 70.6128 30.3863 70.6128 30.9713C70.6128 32.1147 70.9718 32.9125 71.6897 33.3645C72.4077 33.7899 73.3782 34.0027 74.6014 34.0027ZM74.2025 16.0142C75.798 16.0142 77.1408 16.2136 78.231 16.6124C79.3212 17.0113 80.1854 17.5697 80.8236 18.2877C81.4884 19.0056 81.9537 19.8831 82.2196 20.9201C82.5121 21.9306 82.6583 23.0474 82.6583 24.2705V36.9143C81.9138 37.0739 80.7837 37.26 79.268 37.4727C77.779 37.712 76.0905 37.8317 74.2025 37.8317C72.9528 37.8317 71.8094 37.712 70.7724 37.4727C69.7353 37.2334 68.8445 36.8479 68.1 36.316C67.3821 35.7842 66.8104 35.0929 66.3849 34.242C65.9861 33.3911 65.7866 32.3408 65.7866 31.091C65.7866 29.8944 66.0127 28.884 66.4647 28.0597C66.9433 27.2354 67.5815 26.5706 68.3792 26.0654C69.1769 25.5336 70.0943 25.1613 71.1313 24.9486C72.195 24.7093 73.2985 24.5896 74.4419 24.5896C74.9737 24.5896 75.5321 24.6295 76.1171 24.7093C76.7021 24.7624 77.3269 24.8688 77.9917 25.0284V24.2306C77.9917 23.6722 77.9252 23.1404 77.7923 22.6352C77.6593 22.13 77.42 21.6912 77.0743 21.319C76.7552 20.9201 76.3165 20.6143 75.7581 20.4016C75.2263 20.1889 74.5482 20.0825 73.7239 20.0825C72.6071 20.0825 71.5834 20.1623 70.6527 20.3218C69.722 20.4814 68.9642 20.6675 68.3792 20.8802L67.7809 16.9714C68.3925 16.7587 69.2833 16.546 70.4533 16.3332C71.6233 16.1205 72.873 16.0142 74.2025 16.0142Z" fill="white"/>
<path d="M100.455 20.8802C100.056 20.7473 99.4973 20.6143 98.7794 20.4814C98.088 20.3218 97.277 20.2421 96.3463 20.2421C95.8145 20.2421 95.2428 20.2952 94.6312 20.4016C94.0463 20.508 93.6341 20.601 93.3948 20.6808V37.393H88.5686V17.5298C89.4993 17.1841 90.656 16.8651 92.0387 16.5726C93.448 16.2535 95.0035 16.0939 96.7053 16.0939C97.0244 16.0939 97.3967 16.1205 97.8221 16.1737C98.2476 16.2003 98.673 16.2535 99.0985 16.3332C99.5239 16.3864 99.9361 16.4662 100.335 16.5726C100.734 16.6523 101.053 16.7321 101.292 16.8119L100.455 20.8802Z" fill="white"/>
<path d="M118.496 27.0625C118.496 24.9087 118.004 23.2335 117.02 22.0369C116.063 20.8403 114.507 20.2421 112.353 20.2421C111.901 20.2421 111.423 20.2686 110.917 20.3218C110.439 20.3484 109.96 20.4282 109.482 20.5611V32.487C109.907 32.7795 110.465 33.0587 111.157 33.3246C111.875 33.5639 112.633 33.6836 113.43 33.6836C115.185 33.6836 116.462 33.0853 117.259 31.8887C118.084 30.6921 118.496 29.0834 118.496 27.0625ZM123.442 26.9828C123.442 28.5782 123.229 30.0407 122.803 31.3702C122.405 32.6997 121.82 33.8431 121.048 34.8004C120.277 35.7576 119.307 36.5022 118.137 37.034C116.993 37.5658 115.69 37.8317 114.228 37.8317C113.244 37.8317 112.34 37.712 111.516 37.4727C110.691 37.2334 110.013 36.9675 109.482 36.675V44.7718H104.655V17.2107C105.639 16.9448 106.849 16.6922 108.285 16.4529C109.721 16.2136 111.237 16.0939 112.832 16.0939C114.481 16.0939 115.956 16.3465 117.259 16.8518C118.562 17.357 119.666 18.0882 120.57 19.0455C121.5 19.9762 122.205 21.1195 122.684 22.4757C123.189 23.8052 123.442 25.3076 123.442 26.9828Z" fill="white"/>
</g>
</g>
</g>
</svg>
