<svg width="134" height="134" viewBox="0 0 134 134" fill="none" xmlns="http://www.w3.org/2000/svg">
<g id="bill-receipt">
<rect id="accent" x="29.6397" y="26.6871" width="74.7207" height="80.6257" fill="url(#paint0_linear_63_55)"/>
<g id="glass" filter="url(#filter0_bi_63_55)">
<path d="M118.774 0H15.2293C13.6139 0 12.0646 0.641716 10.9223 1.78398C9.78008 2.92624 9.13837 4.47548 9.13837 6.09089V130.954C9.13828 131.505 9.28788 132.046 9.5712 132.519C9.85452 132.992 10.2609 133.38 10.7471 133.64C11.2332 133.9 11.7809 134.023 12.3316 133.996C12.8823 133.97 13.4154 133.794 13.874 133.488L30.4565 122.427L47.0389 133.482C47.5394 133.816 48.1275 133.994 48.7291 133.994C49.3308 133.994 49.9189 133.816 50.4194 133.482L67.0018 122.427L83.5843 133.482C84.0847 133.816 84.6729 133.994 85.2745 133.994C85.8761 133.994 86.4642 133.816 86.9647 133.482L103.547 122.427L120.13 133.482C120.588 133.788 121.12 133.963 121.671 133.99C122.221 134.017 122.768 133.895 123.254 133.635C123.74 133.376 124.146 132.989 124.43 132.517C124.714 132.045 124.864 131.505 124.865 130.954V6.09089C124.865 4.47548 124.224 2.92624 123.081 1.78398C121.939 0.641716 120.39 0 118.774 0Z" fill="#1D1D1D" fill-opacity="0.05"/>
<path d="M118.774 0H15.2293C13.6139 0 12.0646 0.641716 10.9223 1.78398C9.78008 2.92624 9.13837 4.47548 9.13837 6.09089V130.954C9.13828 131.505 9.28788 132.046 9.5712 132.519C9.85452 132.992 10.2609 133.38 10.7471 133.64C11.2332 133.9 11.7809 134.023 12.3316 133.996C12.8823 133.97 13.4154 133.794 13.874 133.488L30.4565 122.427L47.0389 133.482C47.5394 133.816 48.1275 133.994 48.7291 133.994C49.3308 133.994 49.9189 133.816 50.4194 133.482L67.0018 122.427L83.5843 133.482C84.0847 133.816 84.6729 133.994 85.2745 133.994C85.8761 133.994 86.4642 133.816 86.9647 133.482L103.547 122.427L120.13 133.482C120.588 133.788 121.12 133.963 121.671 133.99C122.221 134.017 122.768 133.895 123.254 133.635C123.74 133.376 124.146 132.989 124.43 132.517C124.714 132.045 124.864 131.505 124.865 130.954V6.09089C124.865 4.47548 124.224 2.92624 123.081 1.78398C121.939 0.641716 120.39 0 118.774 0Z" fill="url(#paint1_linear_63_55)" fill-opacity="0.2"/>
<path d="M30.6478 122.14L30.4564 122.012L30.2651 122.14L13.6827 133.201C13.2759 133.472 12.8032 133.628 12.3148 133.652C11.8265 133.676 11.3409 133.566 10.9098 133.336C10.4787 133.105 10.1183 132.762 9.86702 132.342C9.61578 131.923 9.48312 131.443 9.48319 130.954V6.09089C9.48319 4.56694 10.0886 3.1054 11.1662 2.02781C12.2438 0.950214 13.7053 0.344828 15.2293 0.344828H118.774C120.298 0.344828 121.76 0.950214 122.837 2.02781C123.915 3.1054 124.52 4.56694 124.52 6.09089V130.953C124.52 131.442 124.386 131.921 124.135 132.34C123.883 132.758 123.522 133.101 123.091 133.331C122.661 133.561 122.175 133.67 121.687 133.646C121.2 133.622 120.727 133.466 120.321 133.195L120.321 133.195L103.738 122.14L103.547 122.012L103.356 122.14L86.7734 133.195L86.7733 133.195C86.3295 133.491 85.808 133.649 85.2745 133.649C84.741 133.649 84.2194 133.491 83.7756 133.195L83.7755 133.195L67.1931 122.14L67.0018 122.012L66.8105 122.14L50.2281 133.195L50.228 133.195C49.7842 133.491 49.2626 133.649 48.7291 133.649C48.1956 133.649 47.6741 133.491 47.2303 133.195L47.2302 133.195L30.6478 122.14Z" stroke="url(#paint2_linear_63_55)" stroke-opacity="0.1" stroke-width="0.689655"/>
</g>
<g id="detail" filter="url(#filter1_i_63_55)">
<path d="M73.0908 94.41H36.5455C35.7378 94.41 34.9632 94.0892 34.3921 93.5181C33.8209 92.9469 33.5001 92.1723 33.5001 91.3646C33.5001 90.5569 33.8209 89.7823 34.3921 89.2111C34.9632 88.64 35.7378 88.3192 36.5455 88.3192H73.0908C73.8985 88.3192 74.6732 88.64 75.2443 89.2111C75.8154 89.7823 76.1363 90.5569 76.1363 91.3646C76.1363 92.1723 75.8154 92.9469 75.2443 93.5181C74.6732 94.0892 73.8985 94.41 73.0908 94.41Z" fill="white" fill-opacity="0.1"/>
</g>
<g id="detail_2" filter="url(#filter2_i_63_55)">
<path d="M97.4555 94.41H91.3647C90.557 94.41 89.7823 94.0892 89.2112 93.5181C88.6401 92.9469 88.3192 92.1723 88.3192 91.3646C88.3192 90.5569 88.6401 89.7823 89.2112 89.2111C89.7823 88.64 90.557 88.3192 91.3647 88.3192H97.4555C98.2632 88.3192 99.0379 88.64 99.609 89.2111C100.18 89.7823 100.501 90.5569 100.501 91.3646C100.501 92.1723 100.18 92.9469 99.609 93.5181C99.0379 94.0892 98.2632 94.41 97.4555 94.41Z" fill="white" fill-opacity="0.1"/>
</g>
<g id="detail_3" filter="url(#filter3_i_63_55)">
<path d="M73.0908 76.1361H36.5455C35.7378 76.1361 34.9632 75.8153 34.3921 75.2441C33.8209 74.673 33.5001 73.8984 33.5001 73.0907C33.5001 72.283 33.8209 71.5083 34.3921 70.9372C34.9632 70.3661 35.7378 70.0452 36.5455 70.0452H73.0908C73.8985 70.0452 74.6732 70.3661 75.2443 70.9372C75.8154 71.5083 76.1363 72.283 76.1363 73.0907C76.1363 73.8984 75.8154 74.673 75.2443 75.2441C74.6732 75.8153 73.8985 76.1361 73.0908 76.1361Z" fill="white" fill-opacity="0.1"/>
</g>
<g id="detail_4" filter="url(#filter4_i_63_55)">
<path d="M97.4555 76.1361H91.3647C90.557 76.1361 89.7823 75.8153 89.2112 75.2441C88.6401 74.673 88.3192 73.8984 88.3192 73.0907C88.3192 72.283 88.6401 71.5083 89.2112 70.9372C89.7823 70.3661 90.557 70.0452 91.3647 70.0452H97.4555C98.2632 70.0452 99.0379 70.3661 99.609 70.9372C100.18 71.5083 100.501 72.283 100.501 73.0907C100.501 73.8984 100.18 74.673 99.609 75.2441C99.0379 75.8153 98.2632 76.1361 97.4555 76.1361Z" fill="white" fill-opacity="0.1"/>
</g>
<g id="detail_5" filter="url(#filter5_i_63_55)">
<path d="M67.0015 54.8193C77.0932 54.8193 85.2742 46.6384 85.2742 36.5466C85.2742 26.4549 77.0932 18.274 67.0015 18.274C56.9098 18.274 48.7288 26.4549 48.7288 36.5466C48.7288 46.6384 56.9098 54.8193 67.0015 54.8193Z" fill="white" fill-opacity="0.1"/>
</g>
</g>
<defs>
<filter id="filter0_bi_63_55" x="-4.65474" y="-13.7931" width="143.313" height="161.586" filterUnits="userSpaceOnUse" color-interpolation-filters="sRGB">
<feFlood flood-opacity="0" result="BackgroundImageFix"/>
<feGaussianBlur in="BackgroundImageFix" stdDeviation="6.89655"/>
<feComposite in2="SourceAlpha" operator="in" result="effect1_backgroundBlur_63_55"/>
<feBlend mode="normal" in="SourceGraphic" in2="effect1_backgroundBlur_63_55" result="shape"/>
<feColorMatrix in="SourceAlpha" type="matrix" values="0 0 0 0 0 0 0 0 0 0 0 0 0 0 0 0 0 0 127 0" result="hardAlpha"/>
<feOffset dy="4.5977"/>
<feGaussianBlur stdDeviation="3.44828"/>
<feComposite in2="hardAlpha" operator="arithmetic" k2="-1" k3="1"/>
<feColorMatrix type="matrix" values="0 0 0 0 1 0 0 0 0 1 0 0 0 0 1 0 0 0 0.15 0"/>
<feBlend mode="normal" in2="shape" result="effect2_innerShadow_63_55"/>
</filter>
<filter id="filter1_i_63_55" x="33.5001" y="88.3192" width="42.6362" height="10.6886" filterUnits="userSpaceOnUse" color-interpolation-filters="sRGB">
<feFlood flood-opacity="0" result="BackgroundImageFix"/>
<feBlend mode="normal" in="SourceGraphic" in2="BackgroundImageFix" result="shape"/>
<feColorMatrix in="SourceAlpha" type="matrix" values="0 0 0 0 0 0 0 0 0 0 0 0 0 0 0 0 0 0 127 0" result="hardAlpha"/>
<feOffset dy="4.5977"/>
<feGaussianBlur stdDeviation="2.29885"/>
<feComposite in2="hardAlpha" operator="arithmetic" k2="-1" k3="1"/>
<feColorMatrix type="matrix" values="0 0 0 0 1 0 0 0 0 1 0 0 0 0 1 0 0 0 0.1 0"/>
<feBlend mode="normal" in2="shape" result="effect1_innerShadow_63_55"/>
</filter>
<filter id="filter2_i_63_55" x="88.3192" y="88.3192" width="12.1818" height="10.6886" filterUnits="userSpaceOnUse" color-interpolation-filters="sRGB">
<feFlood flood-opacity="0" result="BackgroundImageFix"/>
<feBlend mode="normal" in="SourceGraphic" in2="BackgroundImageFix" result="shape"/>
<feColorMatrix in="SourceAlpha" type="matrix" values="0 0 0 0 0 0 0 0 0 0 0 0 0 0 0 0 0 0 127 0" result="hardAlpha"/>
<feOffset dy="4.5977"/>
<feGaussianBlur stdDeviation="2.29885"/>
<feComposite in2="hardAlpha" operator="arithmetic" k2="-1" k3="1"/>
<feColorMatrix type="matrix" values="0 0 0 0 1 0 0 0 0 1 0 0 0 0 1 0 0 0 0.1 0"/>
<feBlend mode="normal" in2="shape" result="effect1_innerShadow_63_55"/>
</filter>
<filter id="filter3_i_63_55" x="33.5001" y="70.0452" width="42.6362" height="10.6886" filterUnits="userSpaceOnUse" color-interpolation-filters="sRGB">
<feFlood flood-opacity="0" result="BackgroundImageFix"/>
<feBlend mode="normal" in="SourceGraphic" in2="BackgroundImageFix" result="shape"/>
<feColorMatrix in="SourceAlpha" type="matrix" values="0 0 0 0 0 0 0 0 0 0 0 0 0 0 0 0 0 0 127 0" result="hardAlpha"/>
<feOffset dy="4.5977"/>
<feGaussianBlur stdDeviation="2.29885"/>
<feComposite in2="hardAlpha" operator="arithmetic" k2="-1" k3="1"/>
<feColorMatrix type="matrix" values="0 0 0 0 1 0 0 0 0 1 0 0 0 0 1 0 0 0 0.1 0"/>
<feBlend mode="normal" in2="shape" result="effect1_innerShadow_63_55"/>
</filter>
<filter id="filter4_i_63_55" x="88.3192" y="70.0452" width="12.1818" height="10.6886" filterUnits="userSpaceOnUse" color-interpolation-filters="sRGB">
<feFlood flood-opacity="0" result="BackgroundImageFix"/>
<feBlend mode="normal" in="SourceGraphic" in2="BackgroundImageFix" result="shape"/>
<feColorMatrix in="SourceAlpha" type="matrix" values="0 0 0 0 0 0 0 0 0 0 0 0 0 0 0 0 0 0 127 0" result="hardAlpha"/>
<feOffset dy="4.5977"/>
<feGaussianBlur stdDeviation="2.29885"/>
<feComposite in2="hardAlpha" operator="arithmetic" k2="-1" k3="1"/>
<feColorMatrix type="matrix" values="0 0 0 0 1 0 0 0 0 1 0 0 0 0 1 0 0 0 0.1 0"/>
<feBlend mode="normal" in2="shape" result="effect1_innerShadow_63_55"/>
</filter>
<filter id="filter5_i_63_55" x="48.7288" y="18.274" width="36.5453" height="41.1431" filterUnits="userSpaceOnUse" color-interpolation-filters="sRGB">
<feFlood flood-opacity="0" result="BackgroundImageFix"/>
<feBlend mode="normal" in="SourceGraphic" in2="BackgroundImageFix" result="shape"/>
<feColorMatrix in="SourceAlpha" type="matrix" values="0 0 0 0 0 0 0 0 0 0 0 0 0 0 0 0 0 0 127 0" result="hardAlpha"/>
<feOffset dy="4.5977"/>
<feGaussianBlur stdDeviation="2.29885"/>
<feComposite in2="hardAlpha" operator="arithmetic" k2="-1" k3="1"/>
<feColorMatrix type="matrix" values="0 0 0 0 1 0 0 0 0 1 0 0 0 0 1 0 0 0 0.1 0"/>
<feBlend mode="normal" in2="shape" result="effect1_innerShadow_63_55"/>
</filter>
<linearGradient id="paint0_linear_63_55" x1="29.6397" y1="26.6871" x2="118.417" y2="47.5784" gradientUnits="userSpaceOnUse">
<stop stop-color="#75A5FF"/>
<stop offset="0.703125" stop-color="#2339FF"/>
</linearGradient>
<linearGradient id="paint1_linear_63_55" x1="9.13837" y1="0" x2="147.592" y2="30.3619" gradientUnits="userSpaceOnUse">
<stop stop-color="#87FFE1"/>
<stop offset="0.776042" stop-color="#5C6DFF"/>
</linearGradient>
<linearGradient id="paint2_linear_63_55" x1="12.7548" y1="6.09091" x2="124.865" y2="6.09091" gradientUnits="userSpaceOnUse">
<stop stop-color="#3CDEB6"/>
<stop offset="0.65625" stop-color="#364AFF"/>
</linearGradient>
</defs>
</svg>
