<svg width="156" height="156" viewBox="0 0 156 156" fill="none" xmlns="http://www.w3.org/2000/svg">
<g id="shield-security">
<path id="accent" d="M129.854 35.5563L78.6674 19.6018C78.2309 19.4661 77.7682 19.4661 77.3317 19.6018L26.1446 35.5563C25.6348 35.7147 25.1862 36.0502 24.8669 36.5118C24.5475 36.9734 24.3749 37.536 24.375 38.1143C24.375 76.0674 38.6489 100.72 50.6242 114.717C58.0865 123.68 67.053 131.001 77.0392 136.285C77.3427 136.427 77.6694 136.5 77.9996 136.5C78.3297 136.5 78.6565 136.427 78.9599 136.285C88.9462 131.001 97.9126 123.68 105.375 114.717C117.35 100.72 131.624 76.0674 131.624 38.1143C131.624 37.536 131.452 36.9734 131.132 36.5118C130.813 36.0502 130.364 35.7147 129.854 35.5563Z" fill="url(#paint0_linear_63_81)"/>
<g id="glass" filter="url(#filter0_bi_63_81)">
<path d="M147.14 21.4083L78.8905 0.135685C78.3084 -0.0452284 77.6916 -0.0452284 77.1095 0.135685L8.8595 21.4083C8.17973 21.6196 7.58162 22.0669 7.15584 22.6824C6.73005 23.2978 6.49981 24.048 6.5 24.819C6.5 75.4231 25.532 108.293 41.4992 126.956C51.4491 138.906 63.4044 148.668 76.7195 155.713C77.1241 155.902 77.5598 156 78 156C78.4402 156 78.8759 155.902 79.2805 155.713C92.5956 148.668 104.551 138.906 114.501 126.956C130.468 108.293 149.5 75.4231 149.5 24.819C149.5 24.048 149.27 23.2978 148.844 22.6824C148.418 22.0669 147.82 21.6196 147.14 21.4083Z" fill="#1D1D1D" fill-opacity="0.05"/>
<path d="M147.14 21.4083L78.8905 0.135685C78.3084 -0.0452284 77.6916 -0.0452284 77.1095 0.135685L8.8595 21.4083C8.17973 21.6196 7.58162 22.0669 7.15584 22.6824C6.73005 23.2978 6.49981 24.048 6.5 24.819C6.5 75.4231 25.532 108.293 41.4992 126.956C51.4491 138.906 63.4044 148.668 76.7195 155.713C77.1241 155.902 77.5598 156 78 156C78.4402 156 78.8759 155.902 79.2805 155.713C92.5956 148.668 104.551 138.906 114.501 126.956C130.468 108.293 149.5 75.4231 149.5 24.819C149.5 24.048 149.27 23.2978 148.844 22.6824C148.418 22.0669 147.82 21.6196 147.14 21.4083Z" fill="url(#paint1_linear_63_81)" fill-opacity="0.2"/>
<path d="M146.962 21.9813L146.962 21.9812L78.7124 0.708649L146.962 21.9813ZM146.962 21.9813C147.507 22.1506 147.997 22.5124 148.351 23.0237C148.705 23.5357 148.9 24.1659 148.9 24.8189C148.9 75.258 129.935 107.994 114.045 126.566L114.045 126.566L114.04 126.572C104.142 138.46 92.2517 148.169 79.0135 155.176C78.6909 155.324 78.3465 155.4 78 155.4C77.6535 155.4 77.309 155.324 76.9864 155.176C63.7482 148.169 51.8584 138.46 41.9604 126.572L41.9552 126.566C26.0655 107.994 7.1 75.258 7.1 24.819V24.8189C7.09984 24.1659 7.29512 23.5357 7.64927 23.0237C8.00298 22.5124 8.49274 22.1506 9.03758 21.9813L9.03804 21.9812M146.962 21.9813L9.03804 21.9812M9.03804 21.9812L77.2876 0.708649L9.03804 21.9812ZM77.288 0.708506C77.7539 0.563833 78.2461 0.563833 78.712 0.708506H77.288Z" stroke="url(#paint2_linear_63_81)" stroke-opacity="0.1" stroke-width="1.2"/>
</g>
<g id="detail" filter="url(#filter1_i_63_81)">
<path d="M81.1903 37.4348L89.5859 54.4529L108.348 57.1793C109.003 57.2749 109.617 57.5515 110.122 57.9778C110.627 58.4041 111.003 58.9632 111.208 59.5919C111.412 60.2206 111.436 60.8939 111.278 61.5358C111.12 62.1776 110.786 62.7625 110.313 63.2243L96.7335 76.463L99.9244 95.1475C100.036 95.7995 99.9632 96.4697 99.7139 97.0825C99.4646 97.6952 99.0488 98.226 98.5136 98.6147C97.9784 99.0035 97.3451 99.2348 96.6853 99.2825C96.0255 99.3301 95.3655 99.1922 94.78 98.8844L77.9994 90.0562L61.2188 98.8773C60.6333 99.1851 59.9734 99.323 59.3136 99.2754C58.6538 99.2277 58.0205 98.9964 57.4852 98.6077C56.95 98.2189 56.5343 97.6881 56.2849 97.0754C56.0356 96.4627 55.9627 95.7924 56.0744 95.1404L59.2653 76.4559L45.6863 63.2172C45.2133 62.7554 44.8788 62.1705 44.7206 61.5287C44.5625 60.8868 44.5869 60.2135 44.7912 59.5848C44.9955 58.9561 45.3715 58.397 45.8767 57.9707C46.382 57.5444 46.9963 57.2678 47.6504 57.1722L66.4129 54.4458L74.8085 37.4277C75.1324 36.8677 75.5979 36.4029 76.1584 36.08C76.7189 35.7571 77.3546 35.5874 78.0015 35.5881C78.6483 35.5889 79.2836 35.7599 79.8434 36.0841C80.4032 36.4082 80.8677 36.8741 81.1903 37.4348Z" fill="white" fill-opacity="0.16"/>
</g>
</g>
<defs>
<filter id="filter0_bi_63_81" x="-17.5" y="-24" width="191" height="204" filterUnits="userSpaceOnUse" color-interpolation-filters="sRGB">
<feFlood flood-opacity="0" result="BackgroundImageFix"/>
<feGaussianBlur in="BackgroundImageFix" stdDeviation="12"/>
<feComposite in2="SourceAlpha" operator="in" result="effect1_backgroundBlur_63_81"/>
<feBlend mode="normal" in="SourceGraphic" in2="effect1_backgroundBlur_63_81" result="shape"/>
<feColorMatrix in="SourceAlpha" type="matrix" values="0 0 0 0 0 0 0 0 0 0 0 0 0 0 0 0 0 0 127 0" result="hardAlpha"/>
<feOffset dy="8"/>
<feGaussianBlur stdDeviation="6"/>
<feComposite in2="hardAlpha" operator="arithmetic" k2="-1" k3="1"/>
<feColorMatrix type="matrix" values="0 0 0 0 1 0 0 0 0 1 0 0 0 0 1 0 0 0 0.15 0"/>
<feBlend mode="normal" in2="shape" result="effect2_innerShadow_63_81"/>
</filter>
<filter id="filter1_i_63_81" x="44.6177" y="35.5881" width="66.7635" height="71.7036" filterUnits="userSpaceOnUse" color-interpolation-filters="sRGB">
<feFlood flood-opacity="0" result="BackgroundImageFix"/>
<feBlend mode="normal" in="SourceGraphic" in2="BackgroundImageFix" result="shape"/>
<feColorMatrix in="SourceAlpha" type="matrix" values="0 0 0 0 0 0 0 0 0 0 0 0 0 0 0 0 0 0 127 0" result="hardAlpha"/>
<feOffset dy="8"/>
<feGaussianBlur stdDeviation="4"/>
<feComposite in2="hardAlpha" operator="arithmetic" k2="-1" k3="1"/>
<feColorMatrix type="matrix" values="0 0 0 0 1 0 0 0 0 1 0 0 0 0 1 0 0 0 0.4 0"/>
<feBlend mode="normal" in2="shape" result="effect1_innerShadow_63_81"/>
</filter>
<linearGradient id="paint0_linear_63_81" x1="28.8437" y1="42.9" x2="146.109" y2="57.8295" gradientUnits="userSpaceOnUse">
<stop stop-color="#8AE6CF"/>
<stop offset="1" stop-color="#7C3AE7"/>
</linearGradient>
<linearGradient id="paint1_linear_63_81" x1="12.4583" y1="31.2" x2="168.813" y2="51.1063" gradientUnits="userSpaceOnUse">
<stop stop-color="#66FECB"/>
<stop offset="1" stop-color="#8940FF"/>
</linearGradient>
<linearGradient id="paint2_linear_63_81" x1="10.9688" y1="7.09091" x2="149.5" y2="7.09091" gradientUnits="userSpaceOnUse">
<stop stop-color="#C8A6FF"/>
<stop offset="1" stop-color="#69CFB5"/>
</linearGradient>
</defs>
</svg>
